<svg width="301" height="63" viewBox="0 0 301 63" fill="none" xmlns="http://www.w3.org/2000/svg">
<path d="M291.674 17.345L284.697 34.4905C284.497 34.6899 284.497 35.0886 284.497 35.288L284.298 35.6867L284.098 35.288C284.098 35.0886 283.899 34.6899 283.899 34.4905L276.921 17.345H267.95L279.712 46.6519L274.728 57.8165H283.7L300.247 17.345H291.674Z" fill="white"/>
<path d="M225.484 18.94C223.889 17.7438 221.895 16.9464 219.503 16.747C215.515 16.3483 211.727 17.7438 209.135 20.3356V17.1457H200.961V46.4527H209.135V31.1014C209.135 27.7122 209.734 26.7153 210.332 25.9179C211.329 24.3229 213.123 23.5255 215.316 23.5255C217.509 23.5255 219.503 24.5223 220.499 26.1172C221.098 27.3134 221.297 28.9084 221.297 29.7058C221.297 32.2976 221.297 46.4527 221.297 46.4527H229.471V28.709C229.471 24.1236 228.275 20.9337 225.484 18.94Z" fill="white"/>
<path d="M185.611 17.5444C181.623 16.1488 177.237 16.3482 173.25 18.1425C170.658 19.3387 168.266 21.3324 166.87 23.9241C165.475 26.1172 164.876 28.9083 164.876 31.8988C164.876 34.8893 165.475 37.6805 166.87 39.8735C168.266 42.0665 170.06 44.0602 172.452 45.2564C174.845 46.4526 177.636 47.2501 180.228 47.2501C181.623 47.2501 183.019 47.0507 184.414 46.652C185.611 46.2532 186.807 45.8545 188.003 45.2564C190.395 43.8608 192.389 42.0665 193.585 39.8735C194.981 37.6805 195.579 34.8893 195.579 31.8988C195.579 25.3197 191.791 19.7374 185.611 17.5444ZM187.804 32.2975C187.604 34.8893 186.807 37.0824 185.212 38.4779C184.016 39.4748 182.221 40.0729 180.028 40.2722C177.835 40.2722 176.24 39.6741 174.845 38.4779C173.25 37.0824 172.452 34.8893 172.253 32.2975C172.054 29.307 173.25 26.9146 175.443 25.3197C176.639 24.5222 178.234 23.9241 179.829 23.9241C181.623 23.9241 183.019 24.5222 184.414 25.3197C186.807 26.7153 188.003 29.307 187.804 32.2975Z" fill="white"/>
<path d="M155.307 18.9399C153.712 17.7437 151.718 16.9462 149.326 16.7468C148.927 16.7468 148.329 16.7468 147.93 16.7468C144.74 16.7468 141.949 18.1424 139.557 20.9335L139.158 21.5316H138.36C137.762 20.5348 136.965 19.7373 136.167 19.1392C134.572 17.943 132.579 17.1456 130.186 16.9462C126.398 16.5475 123.408 17.7437 120.816 20.5348V17.5443H112.642V46.8512H120.816V31.5V31.1012C120.816 27.9114 121.215 27.1139 121.813 26.1171C122.81 24.5221 124.604 23.5253 126.598 23.7247C128.591 23.7247 130.386 24.7215 131.383 26.3164C132.18 27.5126 132.18 28.9082 132.18 30.3038V46.6519H140.354V30.9019C140.354 27.9114 140.753 26.9145 141.351 25.9177C142.348 24.3228 144.142 23.5253 146.136 23.5253C148.129 23.5253 149.724 24.5221 150.721 26.1171C151.319 27.1139 151.519 28.3101 151.519 29.1076C151.519 29.5063 151.519 29.905 151.519 30.1044V46.4525H159.693V28.5095C159.693 26.9145 159.493 25.3196 159.095 23.924C158.297 21.9304 157.101 20.1361 155.307 18.9399Z" fill="white"/>
<path d="M260.173 37.6804C258.977 38.8766 256.186 41.0696 252.398 41.269C249.208 41.4683 246.816 40.4715 245.021 38.6772C244.224 37.8797 243.626 36.6835 243.227 35.4873H265.756V35.288C265.955 34.0918 266.154 33.0949 266.154 31.8987C266.154 30.9019 265.955 29.5063 265.556 27.712C264.559 24.3228 262.566 21.731 259.974 19.7373C256.983 17.5443 254.192 16.9462 253.395 16.9462C247.613 15.9494 241.034 18.5411 237.645 23.924C235.252 27.712 235.452 31.5 235.452 32.6962C235.452 34.0918 235.651 38.4778 239.24 42.4652C243.427 47.0506 249.208 47.25 251.002 47.4494C258.977 47.6487 264.36 42.6645 265.556 41.6677L260.173 37.6804ZM246.218 25.3196C247.414 24.5221 248.809 23.924 250.604 23.924C252.398 23.924 253.794 24.5221 255.189 25.3196C256.385 26.3164 257.382 27.5126 257.98 28.9082H243.626C244.025 27.5126 244.822 26.1171 246.218 25.3196Z" fill="white"/>
<path d="M57.2192 0C39.6749 0 25.7192 14.1551 25.7192 31.5C25.7192 49.0443 39.8743 63 57.2192 63C74.5642 63 88.7192 48.8449 88.7192 31.5C88.7192 14.1551 74.5642 0 57.2192 0ZM57.2192 43.0633C50.8395 43.0633 45.4566 37.6804 45.4566 31.3006C45.4566 24.9209 50.8395 19.538 57.2192 19.538C63.599 19.538 68.9819 24.9209 68.9819 31.3006C68.7825 37.8797 63.599 43.0633 57.2192 43.0633Z" fill="white"/>
<path d="M25.519 8.97156V54.826H14.3544L0 8.97156H25.519Z" fill="white"/>
</svg>
